<svg width="18" height="18" viewBox="0 0 18 18" fill="none" xmlns="http://www.w3.org/2000/svg">
<path fill-rule="evenodd" clip-rule="evenodd" d="M3.75 3C3.33579 3 3 3.33579 3 3.75V14.25C3 14.6642 3.33579 15 3.75 15H14.25C14.6642 15 15 14.6642 15 14.25V3.75C15 3.33579 14.6642 3 14.25 3H3.75ZM1.5 3.75C1.5 2.50736 2.50736 1.5 3.75 1.5H14.25C15.4926 1.5 16.5 2.50736 16.5 3.75V14.25C16.5 15.4926 15.4926 16.5 14.25 16.5H3.75C2.50736 16.5 1.5 15.4926 1.5 14.25V3.75Z" fill="#213D4C"/>
<path fill-rule="evenodd" clip-rule="evenodd" d="M1.5 6.75C1.5 6.33579 1.83579 6 2.25 6H15.75C16.1642 6 16.5 6.33579 16.5 6.75C16.5 7.16421 16.1642 7.5 15.75 7.5H2.25C1.83579 7.5 1.5 7.16421 1.5 6.75Z" fill="#213D4C"/>
<path fill-rule="evenodd" clip-rule="evenodd" d="M1.5 11.25C1.5 10.8358 1.83579 10.5 2.25 10.5H15.75C16.1642 10.5 16.5 10.8358 16.5 11.25C16.5 11.6642 16.1642 12 15.75 12H2.25C1.83579 12 1.5 11.6642 1.5 11.25Z" fill="#213D4C"/>
<path fill-rule="evenodd" clip-rule="evenodd" d="M6.75 1.5C7.16421 1.5 7.5 1.83579 7.5 2.25V15.75C7.5 16.1642 7.16421 16.5 6.75 16.5C6.33579 16.5 6 16.1642 6 15.75V2.25C6 1.83579 6.33579 1.5 6.75 1.5Z" fill="#213D4C"/>
<path fill-rule="evenodd" clip-rule="evenodd" d="M11.25 1.5C11.6642 1.5 12 1.83579 12 2.25V15.75C12 16.1642 11.6642 16.5 11.25 16.5C10.8358 16.5 10.5 16.1642 10.5 15.75V2.25C10.5 1.83579 10.8358 1.5 11.25 1.5Z" fill="#213D4C"/>
</svg>
