<svg width="19" height="18" viewBox="0 0 19 18" fill="none" xmlns="http://www.w3.org/2000/svg">
<path fill-rule="evenodd" clip-rule="evenodd" d="M4.25 3C4.05109 3 3.86032 3.07902 3.71967 3.21967C3.57902 3.36032 3.5 3.55109 3.5 3.75V14.25C3.5 14.4489 3.57902 14.6397 3.71967 14.7803C3.86032 14.921 4.05109 15 4.25 15H7.25C7.66421 15 8 15.3358 8 15.75C8 16.1642 7.66421 16.5 7.25 16.5H4.25C3.65326 16.5 3.08097 16.2629 2.65901 15.841C2.23705 15.419 2 14.8467 2 14.25V3.75C2 3.15326 2.23705 2.58097 2.65901 2.15901C3.08097 1.73705 3.65326 1.5 4.25 1.5H7.25C7.66421 1.5 8 1.83579 8 2.25C8 2.66421 7.66421 3 7.25 3H4.25Z" fill="#213D4C"/>
<path fill-rule="evenodd" clip-rule="evenodd" d="M11.9697 4.71967C12.2626 4.42678 12.7374 4.42678 13.0303 4.71967L16.7803 8.46967C17.0732 8.76256 17.0732 9.23744 16.7803 9.53033L13.0303 13.2803C12.7374 13.5732 12.2626 13.5732 11.9697 13.2803C11.6768 12.9874 11.6768 12.5126 11.9697 12.2197L15.1893 9L11.9697 5.78033C11.6768 5.48744 11.6768 5.01256 11.9697 4.71967Z" fill="#213D4C"/>
<path fill-rule="evenodd" clip-rule="evenodd" d="M6.5 9C6.5 8.58579 6.83579 8.25 7.25 8.25H16.25C16.6642 8.25 17 8.58579 17 9C17 9.41421 16.6642 9.75 16.25 9.75H7.25C6.83579 9.75 6.5 9.41421 6.5 9Z" fill="#213D4C"/>
</svg>
