<svg width="30" height="24" viewBox="0 0 30 24" fill="none" xmlns="http://www.w3.org/2000/svg">
<path fill-rule="evenodd" clip-rule="evenodd" d="M7.86612 12.2929C8.35427 11.9024 9.14573 11.9024 9.63388 12.2929L15 16.5858L20.3661 12.2929C20.8543 11.9024 21.6457 11.9024 22.1339 12.2929C22.622 12.6834 22.622 13.3166 22.1339 13.7071L15.8839 18.7071C15.3957 19.0976 14.6043 19.0976 14.1161 18.7071L7.86612 13.7071C7.37796 13.3166 7.37796 12.6834 7.86612 12.2929Z" fill="black"/>
<path fill-rule="evenodd" clip-rule="evenodd" d="M7.86612 5.29289C8.35427 4.90237 9.14573 4.90237 9.63388 5.29289L15 9.58579L20.3661 5.29289C20.8543 4.90237 21.6457 4.90237 22.1339 5.29289C22.622 5.68342 22.622 6.31658 22.1339 6.70711L15.8839 11.7071C15.3957 12.0976 14.6043 12.0976 14.1161 11.7071L7.86612 6.70711C7.37796 6.31658 7.37796 5.68342 7.86612 5.29289Z" fill="black"/>
</svg>
